<svg width="567" height="165" viewBox="0 0 567 165" fill="none" xmlns="http://www.w3.org/2000/svg">
<path d="M103.28 88.56C99.1733 88.56 95.4933 87.8933 92.24 86.56C88.9867 85.2267 86.3733 83.2533 84.4 80.64C82.48 78.0267 81.4667 74.88 81.36 71.2H95.92C96.1333 73.28 96.8533 74.88 98.08 76C99.3067 77.0667 100.907 77.6 102.88 77.6C104.907 77.6 106.507 77.1467 107.68 76.24C108.853 75.28 109.44 73.9733 109.44 72.32C109.44 70.9333 108.96 69.7867 108 68.88C107.093 67.9733 105.947 67.2267 104.56 66.64C103.227 66.0533 101.307 65.3867 98.8 64.64C95.1733 63.52 92.2133 62.4 89.92 61.28C87.6267 60.16 85.6533 58.5067 84 56.32C82.3467 54.1333 81.52 51.28 81.52 47.76C81.52 42.5333 83.4133 38.4533 87.2 35.52C90.9867 32.5333 95.92 31.04 102 31.04C108.187 31.04 113.173 32.5333 116.96 35.52C120.747 38.4533 122.773 42.56 123.04 47.84H108.24C108.133 46.0267 107.467 44.6133 106.24 43.6C105.013 42.5333 103.44 42 101.52 42C99.8667 42 98.5333 42.4533 97.52 43.36C96.5067 44.2133 96 45.4667 96 47.12C96 48.9333 96.8533 50.3467 98.56 51.36C100.267 52.3733 102.933 53.4667 106.56 54.64C110.187 55.8667 113.12 57.04 115.36 58.16C117.653 59.28 119.627 60.9067 121.28 63.04C122.933 65.1733 123.76 67.92 123.76 71.28C123.76 74.48 122.933 77.3867 121.28 80C119.68 82.6133 117.333 84.6933 114.24 86.24C111.147 87.7867 107.493 88.56 103.28 88.56ZM174.259 64.96C174.259 66.24 174.179 67.5733 174.019 68.96H143.059C143.272 71.7333 144.152 73.8667 145.699 75.36C147.299 76.8 149.245 77.52 151.539 77.52C154.952 77.52 157.325 76.08 158.659 73.2H173.219C172.472 76.1333 171.112 78.7733 169.139 81.12C167.219 83.4667 164.792 85.3067 161.859 86.64C158.925 87.9733 155.645 88.64 152.019 88.64C147.645 88.64 143.752 87.7067 140.339 85.84C136.925 83.9733 134.259 81.3067 132.339 77.84C130.419 74.3733 129.459 70.32 129.459 65.68C129.459 61.04 130.392 56.9867 132.259 53.52C134.179 50.0533 136.845 47.3867 140.259 45.52C143.672 43.6533 147.592 42.72 152.019 42.72C156.339 42.72 160.179 43.6267 163.539 45.44C166.899 47.2533 169.512 49.84 171.379 53.2C173.299 56.56 174.259 60.48 174.259 64.96ZM160.259 61.36C160.259 59.0133 159.459 57.1467 157.859 55.76C156.259 54.3733 154.259 53.68 151.859 53.68C149.565 53.68 147.619 54.3467 146.019 55.68C144.472 57.0133 143.512 58.9067 143.139 61.36H160.259ZM195.156 50.8C196.756 48.3467 198.756 46.4267 201.156 45.04C203.556 43.6 206.222 42.88 209.156 42.88V57.36H205.396C201.982 57.36 199.422 58.1067 197.716 59.6C196.009 61.04 195.156 63.6 195.156 67.28V88H181.476V43.36H195.156V50.8ZM222.574 38.72C220.174 38.72 218.201 38.0267 216.654 36.64C215.161 35.2 214.414 33.44 214.414 31.36C214.414 29.2267 215.161 27.4667 216.654 26.08C218.201 24.64 220.174 23.92 222.574 23.92C224.921 23.92 226.841 24.64 228.334 26.08C229.881 27.4667 230.654 29.2267 230.654 31.36C230.654 33.44 229.881 35.2 228.334 36.64C226.841 38.0267 224.921 38.72 222.574 38.72ZM229.374 43.36V88H215.694V43.36H229.374ZM281.368 64.96C281.368 66.24 281.288 67.5733 281.128 68.96H250.168C250.381 71.7333 251.261 73.8667 252.808 75.36C254.408 76.8 256.355 77.52 258.648 77.52C262.061 77.52 264.435 76.08 265.768 73.2H280.328C279.581 76.1333 278.221 78.7733 276.248 81.12C274.328 83.4667 271.901 85.3067 268.968 86.64C266.035 87.9733 262.755 88.64 259.128 88.64C254.755 88.64 250.861 87.7067 247.448 85.84C244.035 83.9733 241.368 81.3067 239.448 77.84C237.528 74.3733 236.568 70.32 236.568 65.68C236.568 61.04 237.501 56.9867 239.368 53.52C241.288 50.0533 243.955 47.3867 247.368 45.52C250.781 43.6533 254.701 42.72 259.128 42.72C263.448 42.72 267.288 43.6267 270.648 45.44C274.008 47.2533 276.621 49.84 278.488 53.2C280.408 56.56 281.368 60.48 281.368 64.96ZM267.368 61.36C267.368 59.0133 266.568 57.1467 264.968 55.76C263.368 54.3733 261.368 53.68 258.968 53.68C256.675 53.68 254.728 54.3467 253.128 55.68C251.581 57.0133 250.621 58.9067 250.248 61.36H267.368ZM306.745 88.64C302.852 88.64 299.385 87.9733 296.345 86.64C293.305 85.3067 290.905 83.4933 289.145 81.2C287.385 78.8533 286.398 76.24 286.185 73.36H299.705C299.865 74.9067 300.585 76.16 301.865 77.12C303.145 78.08 304.718 78.56 306.585 78.56C308.292 78.56 309.598 78.24 310.505 77.6C311.465 76.9067 311.945 76.0267 311.945 74.96C311.945 73.68 311.278 72.7467 309.945 72.16C308.612 71.52 306.452 70.8267 303.465 70.08C300.265 69.3333 297.598 68.56 295.465 67.76C293.332 66.9067 291.492 65.6 289.945 63.84C288.398 62.0267 287.625 59.6 287.625 56.56C287.625 54 288.318 51.68 289.705 49.6C291.145 47.4667 293.225 45.7867 295.945 44.56C298.718 43.3333 301.998 42.72 305.785 42.72C311.385 42.72 315.785 44.1067 318.985 46.88C322.238 49.6533 324.105 53.3333 324.585 57.92H311.945C311.732 56.3733 311.038 55.1467 309.865 54.24C308.745 53.3333 307.252 52.88 305.385 52.88C303.785 52.88 302.558 53.2 301.705 53.84C300.852 54.4267 300.425 55.2533 300.425 56.32C300.425 57.6 301.092 58.56 302.425 59.2C303.812 59.84 305.945 60.48 308.825 61.12C312.132 61.9733 314.825 62.8267 316.905 63.68C318.985 64.48 320.798 65.8133 322.345 67.68C323.945 69.4933 324.772 71.9467 324.825 75.04C324.825 77.6533 324.078 80 322.585 82.08C321.145 84.1067 319.038 85.7067 316.265 86.88C313.545 88.0533 310.372 88.64 306.745 88.64ZM386.068 39.84L365.988 88H351.988L372.308 41.36H347.428V29.68H386.068V39.84ZM444.873 78.08H423.913L420.553 88H406.233L426.553 31.84H442.393L462.713 88H448.233L444.873 78.08ZM441.353 67.52L434.393 46.96L427.513 67.52H441.353ZM482.578 31.84V88H468.898V31.84H482.578Z" fill="#4CA054"/>
<path fill-rule="evenodd" clip-rule="evenodd" d="M387.6 136.047C382.269 136.024 377.953 136.005 375.546 136.001C374.589 135.993 373.678 136.04 372.863 136.082C372.309 136.11 371.798 136.136 371.349 136.141C353.539 135.961 334.718 135.996 315.87 136.031C305.289 136.051 294.7 136.07 284.276 136.052C278.81 136.043 273.339 136.131 267.865 136.22C265.704 136.255 263.542 136.29 261.381 136.318C256.402 136.147 251.463 136.286 246.542 136.425C244.226 136.49 241.914 136.555 239.604 136.588C220.025 136.862 200.405 136.856 180.789 136.85C173.924 136.848 167.059 136.846 160.197 136.855C147.869 136.877 135.541 136.893 123.212 136.909C92.3947 136.948 61.5742 136.987 30.7602 137.123C28.5648 137.133 26.3734 137.082 24.1883 137.031C17.6258 136.879 11.1207 136.728 4.73765 138.22C4.68024 138.233 4.59414 138.249 4.50803 138.265C4.42193 138.281 4.33583 138.297 4.27842 138.31C2.38847 138.645 2.2168 139.182 2.04516 139.72C1.96194 139.98 1.87872 140.241 1.59964 140.478C-2.29098 143.769 0.770489 144.815 12.3786 144.331C14.7081 144.225 17.1679 144.336 19.5577 144.444C19.7589 144.453 19.9597 144.462 20.1598 144.471C25.5887 144.703 34.3934 144.756 40.4821 144.792C41.0887 144.796 41.6685 144.799 42.2152 144.803C45.8806 144.828 49.7301 144.709 53.4971 144.591C57.2158 144.476 60.8542 144.363 64.1557 144.394C75.2734 144.51 86.3891 144.698 97.5043 144.887C114.625 145.178 131.745 145.468 148.869 145.491C167.663 145.521 186.458 145.323 205.254 145.125C219.181 144.978 233.11 144.831 247.04 144.777C265.191 144.704 283.342 144.717 301.493 144.731C318.192 144.743 334.891 144.756 351.59 144.701C364.431 144.654 377.271 144.672 390.112 144.69C416.074 144.726 442.039 144.762 468.028 144.267C487.801 143.887 507.722 144.186 527.624 144.484C534.453 144.587 541.28 144.689 548.098 144.764C559.119 144.879 566.314 143.144 566.543 140.134C566.745 137.441 557.474 137.241 551.085 137.104C550.603 137.093 550.137 137.083 549.693 137.072C509.243 136.128 468.678 136.09 428.127 136.154C416.066 136.171 399.362 136.098 387.6 136.047ZM249.882 154.963C249.234 154.961 248.677 154.959 248.227 154.958C247.72 154.958 247.232 154.993 246.785 155.024C246.331 155.056 245.92 155.086 245.573 155.073C234.764 154.94 223.364 154.975 211.925 155.01C204.721 155.032 197.501 155.054 190.403 155.035C187.173 155.026 183.938 155.108 180.7 155.19C179.098 155.231 177.495 155.272 175.893 155.301C172.732 155.129 169.607 155.268 166.489 155.407C165.02 155.472 163.553 155.538 162.084 155.57C150.738 155.83 139.369 155.843 127.995 155.856C122.58 155.863 117.164 155.869 111.749 155.902C84.3868 156.055 57.0249 156.259 29.6629 156.897C28.2722 156.932 26.883 156.907 25.4979 156.881C21.3316 156.805 17.2029 156.73 13.182 158.3C13.1329 158.31 13.0384 158.342 12.9626 158.369C12.94 158.376 12.919 158.384 12.9014 158.389C11.7152 158.75 11.6179 159.291 11.5206 159.832C11.4735 160.093 11.4264 160.355 11.2558 160.596C8.85768 163.938 10.8221 164.946 18.1569 164.334C19.5551 164.211 21.0318 164.284 22.4751 164.355C22.6777 164.365 22.8797 164.375 23.0808 164.385C25.9617 164.53 30.3325 164.506 33.9385 164.486C35.0747 164.48 36.1349 164.474 37.0487 164.474C39.3582 164.468 41.7794 164.315 44.1495 164.165C46.5183 164.015 48.836 163.868 50.9402 163.875C59.2577 163.904 67.5725 164.061 75.8858 164.217C85.4603 164.397 95.0328 164.577 104.605 164.563C115.91 164.549 127.214 164.353 138.52 164.157C147.946 163.994 157.374 163.83 166.804 163.772C177.845 163.76 188.893 163.744 199.941 163.728C210.987 163.712 222.033 163.696 233.072 163.683C239.657 163.635 246.241 163.622 252.825 163.609C270.845 163.573 288.864 163.538 306.905 162.79C318.121 162.314 329.423 162.359 340.73 162.405C346.384 162.427 352.04 162.45 357.687 162.408C364.677 162.369 369.206 160.52 369.27 157.509C369.317 154.807 363.345 154.75 359.298 154.711C359.028 154.709 358.767 154.706 358.516 154.703C335.888 154.399 313.23 154.622 290.551 154.845C287.545 154.875 284.539 154.904 281.533 154.932C271.459 155.025 256.256 154.981 249.882 154.963Z" fill="#4CA054"/>
</svg>
